<?xml version="1.0" encoding="UTF-8"?>
<svg width="179px" height="30px" viewBox="0 0 179 30" version="1.1" xmlns="http://www.w3.org/2000/svg" xmlns:xlink="http://www.w3.org/1999/xlink">
    <!-- Generator: Sketch 53.1 (72631) - https://sketchapp.com -->
    <title>logo</title>
    <desc>Created with Sketch.</desc>
    <defs>
        <polygon id="path-1" points="0.000326940639 0.0745424658 15.1196968 0.0745424658 15.1196968 28.6073059 0.000326940639 28.6073059"></polygon>
        <polygon id="path-3" points="0.720168493 0.0743789954 14.201484 0.0743789954 14.201484 28.6071425 0.720168493 28.6071425"></polygon>
    </defs>
    <g id="logo" stroke="none" stroke-width="1" fill="none" fill-rule="evenodd">
        <g id="Group-25">
            <g id="Group-3" transform="translate(0.000000, 0.743136)">
                <mask id="mask-2" fill="white">
                    <use xlink:href="#path-1"></use>
                </mask>
                <g id="Clip-2"></g>
                <path d="M12.4853726,15.1481406 C11.6745598,14.4035333 10.459158,13.4317023 8.87186119,12.2604374 C7.33687489,11.1349443 6.30047306,10.2481178 5.78881096,9.62202648 C5.30412146,9.03353333 5.05891598,8.29873425 5.05891598,7.43806301 C5.05891598,6.53243744 5.28205297,5.81970685 5.72342283,5.32112237 C6.15988858,4.82662466 6.70996621,4.58632329 7.40389772,4.58632329 C8.14605297,4.58632329 8.72555525,4.8495105 9.17591598,5.39141461 C9.63363288,5.94312694 9.86576073,6.69754247 9.86576073,7.6342274 L9.86576073,8.64774338 C9.86576073,8.85862009 9.94422648,9.04742831 10.0913498,9.1961863 C10.2401078,9.34330959 10.428916,9.42177534 10.6397927,9.42177534 L14.1495005,9.42177534 C14.3595598,9.42177534 14.548368,9.34330959 14.6995781,9.1945516 C14.8467014,9.04579361 14.9243498,8.85698539 14.9243498,8.64774338 L14.9243498,7.71105845 C14.9243498,5.42901279 14.2255142,3.56626849 12.846642,2.17350137 C11.4669525,0.780734247 9.63608493,0.0745424658 7.40389772,0.0745424658 C5.19868311,0.0745424658 3.39478813,0.746405479 2.04207123,2.07296712 C0.686902283,3.40034612 0.000326940639,5.2058758 0.000326940639,7.43806301 C0.000326940639,8.83328219 0.280678539,10.0821954 0.834025571,11.1472046 C1.38165114,12.2032228 2.07231324,13.1178393 2.88721279,13.8648986 C3.68331324,14.595611 4.74913973,15.4432046 6.05363288,16.3831589 C7.18239543,17.2029626 8.01527671,17.8413142 8.53102557,18.2777799 C9.02143653,18.6962639 9.40477443,19.1417205 9.67368311,19.6018895 C9.93033151,20.0465288 10.0602904,20.5851635 10.0602904,21.2038986 C10.0602904,22.0964466 9.83061461,22.7887434 9.35818539,23.3200219 C8.89474703,23.8414922 8.31933151,24.0940539 7.5984274,24.0940539 C6.88324475,24.0940539 6.31682009,23.8251452 5.86727671,23.2717982 C5.40874247,22.7061909 5.17579726,21.9444192 5.17579726,21.0085516 L5.17579726,20.2287982 C5.17579726,20.0179215 5.09733151,19.8291132 4.94939087,19.6803553 C4.80145023,19.5324146 4.61182466,19.4547662 4.40094795,19.4547662 L0.852824658,19.4547662 C0.641947945,19.4547662 0.452322374,19.5324146 0.304381735,19.6803553 C0.156441096,19.8291132 0.0779753425,20.0179215 0.0779753425,20.2287982 L0.0779753425,21.2423142 C0.0779753425,23.4238256 0.778445662,25.2162776 2.15895251,26.5698119 C3.53782466,27.9217114 5.36787489,28.6074694 7.5984274,28.6074694 C9.83143196,28.6074694 11.6631169,27.9012776 13.041989,26.5076932 C14.4200438,25.1157434 15.1196968,23.2529991 15.1196968,20.9693187 C15.1196968,19.7056932 14.8859342,18.5973644 14.4233132,17.6737571 C13.9664137,16.7607753 13.3149845,15.911547 12.4853726,15.1481406" id="Fill-1" fill="#FFFFFF" mask="url(#mask-2)"></path>
            </g>
            <path d="M40.9458005,1.12949817 L37.3192114,1.12949817 C36.8508689,1.12949817 36.5468142,1.39432009 36.509216,1.81934292 L34.2337091,16.9060187 L31.7751155,1.83650731 C31.7342479,1.39350274 31.4310105,1.12949817 30.9634854,1.12949817 L27.8444717,1.12949817 C27.3753119,1.12949817 27.0712571,1.39432009 27.0336589,1.81934292 L24.7557,16.9240005 L22.22191,1.83650731 C22.1810425,1.39350274 21.877805,1.12949817 21.4102799,1.12949817 L17.6668096,1.12949817 C17.1240881,1.12949817 16.9311932,1.46869909 16.940184,1.85939315 L22.1581566,28.330142 C22.1973895,28.7731466 22.5014443,29.0387858 22.9697868,29.0387858 L26.322563,29.0387858 C26.7917228,29.0387858 27.0949603,28.7739639 27.1341932,28.3473064 L29.3737365,13.0072516 L31.7898279,28.330142 C31.8290607,28.7731466 32.1331155,29.0387858 32.601458,29.0387858 L35.9158187,29.0387858 C36.3841612,29.0387858 36.688216,28.7731466 36.7233621,28.3595667 L41.6781475,1.98935205 C41.7181977,1.72779954 41.6716087,1.51774018 41.5383804,1.36162603 C41.4051521,1.20796393 41.2065356,1.12949817 40.9458005,1.12949817" id="Fill-4" fill="#FFFFFF"></path>
            <path d="M48.9404799,1.12949817 L45.3523064,1.12949817 C45.142247,1.12949817 44.9526215,1.20796393 44.8038635,1.35508721 C44.6567402,1.50384521 44.5782744,1.69265342 44.5782744,1.90353014 L44.5782744,28.2639365 C44.5782744,28.4748132 44.6567402,28.6644388 44.8030461,28.8107447 C44.9509868,28.9603201 45.1414297,29.0387858 45.3523064,29.0387858 L48.9404799,29.0387858 C49.152174,29.0387858 49.3417995,28.9603201 49.4889228,28.8123795 C49.6368635,28.6644388 49.7145119,28.4748132 49.7145119,28.2639365 L49.7145119,1.90353014 C49.7145119,1.69265342 49.6368635,1.50384521 49.4889228,1.35508721 C49.3401648,1.20796393 49.1513566,1.12949817 48.9404799,1.12949817" id="Fill-6" fill="#FFFFFF"></path>
            <path d="M66.7721493,1.12949817 L54.1375283,1.12949817 C53.9266516,1.12949817 53.7378434,1.20796393 53.5890854,1.35508721 C53.4411447,1.50384521 53.3634963,1.69265342 53.3634963,1.90353014 L53.3634963,28.2639365 C53.3634963,28.4748132 53.4411447,28.6644388 53.588268,28.8107447 C53.7362087,28.9603201 53.9258342,29.0387858 54.1375283,29.0387858 L57.7257018,29.0387858 C57.9365785,29.0387858 58.1270215,28.9603201 58.2741447,28.8123795 C58.421268,28.6644388 58.4997338,28.4748132 58.4997338,28.2639365 L58.4997338,17.3400324 L63.3409073,17.3400324 C63.5501493,17.3400324 63.7389575,17.2615667 63.8893502,17.1144434 C64.0364735,16.9656854 64.1149393,16.7768772 64.1149393,16.5660005 L64.1149393,13.5630507 C64.1149393,13.352174 64.0364735,13.1633658 63.8877155,13.0137904 C63.7389575,12.8666671 63.5501493,12.7890187 63.3409073,12.7890187 L58.4997338,12.7890187 L58.4997338,5.64209635 L66.7721493,5.64209635 C66.983026,5.64209635 67.1718342,5.56363059 67.3205922,5.41568995 C67.4685329,5.26693196 67.5461813,5.07812374 67.5461813,4.86724703 L67.5461813,1.90353014 C67.5461813,1.69265342 67.4685329,1.50384521 67.3205922,1.35508721 C67.1718342,1.20796393 66.983026,1.12949817 66.7721493,1.12949817" id="Fill-8" fill="#FFFFFF"></path>
            <path d="M85.0795991,1.12949817 L70.5348274,1.12949817 C70.3239507,1.12949817 70.1351425,1.20796393 69.9880192,1.35426986 C69.8392612,1.5022105 69.7607954,1.69183607 69.7607954,1.90353014 L69.7607954,4.86724703 C69.7607954,5.0789411 69.8392612,5.26856667 69.9863845,5.41568995 C70.1351425,5.56363059 70.3239507,5.64209635 70.5348274,5.64209635 L75.1030055,5.64209635 L75.1030055,28.2639365 C75.1030055,28.4756306 75.1814712,28.6652562 75.3277772,28.8107447 C75.4757178,28.9603201 75.6653434,29.0387858 75.8770374,29.0387858 L79.465211,29.0387858 C79.6760877,29.0387858 79.8648959,28.9603201 80.0136539,28.8123795 C80.1607772,28.6644388 80.2392429,28.4748132 80.2392429,28.2639365 L80.2392429,5.64209635 L85.0795991,5.64209635 C85.2896584,5.64209635 85.4784667,5.56363059 85.6296767,5.41405525 C85.7768,5.26611461 85.8544484,5.07648904 85.8544484,4.86724703 L85.8544484,1.90353014 C85.8544484,1.69428813 85.7768,1.50547991 85.6272247,1.35426986 C85.4784667,1.20796393 85.2896584,1.12949817 85.0795991,1.12949817" id="Fill-10" fill="#FFFFFF"></path>
            <path d="M100.246048,21.0947005 L93.7946922,21.0947005 L97.0363087,5.86580548 L100.246048,21.0947005 Z M98.5508612,1.75207489 C98.5067242,1.36219817 98.2320941,1.12925297 97.8160621,1.12925297 L96.2565553,1.12925297 C95.8773041,1.12925297 95.6116648,1.34503379 95.5291123,1.71938082 L89.6008612,28.2424402 C89.5428292,28.5236091 89.637642,28.7075132 89.7226466,28.8088648 C89.8076511,28.9126685 89.9694868,29.0385406 90.2514731,29.0385406 L91.5388018,29.0385406 C91.9548338,29.0385406 92.2286466,28.8055954 92.2670621,28.4426913 L93.2961078,23.4233352 L100.768336,23.4102575 L101.806373,28.4467781 C101.89056,28.8227598 102.155382,29.0385406 102.53545,29.0385406 L103.861195,29.0385406 C104.266601,29.0385406 104.518345,28.785979 104.518345,28.3805726 L104.510989,28.2359014 L98.5508612,1.75207489 Z" id="Fill-12" fill="#FFFFFF"></path>
            <path d="M118.307639,1.12949817 L116.943479,1.12949817 C116.563411,1.12949817 116.297771,1.345279 116.212767,1.72698219 L111.910228,23.5306534 L107.538214,1.75232009 C107.494895,1.36244338 107.220264,1.12949817 106.80505,1.12949817 L105.361607,1.12949817 C104.9562,1.12949817 104.703639,1.38124247 104.703639,1.78664886 L110.404666,28.4470233 C110.488853,28.823005 110.753675,29.0387858 111.132926,29.0387858 L112.575552,29.0387858 C112.992401,29.0387858 113.266214,28.8050233 113.30463,28.4445712 L118.960703,1.91987717 C119.004022,1.68284521 118.964789,1.48913288 118.843821,1.345279 C118.724488,1.20224247 118.543853,1.12949817 118.307639,1.12949817" id="Fill-14" fill="#FFFFFF"></path>
            <path d="M135.043403,1.12949817 L123.969106,1.12949817 C123.539997,1.12949817 123.272723,1.39595479 123.272723,1.82588174 L123.272723,28.3415849 C123.272723,28.7706945 123.539997,29.0387858 123.969106,29.0387858 L135.043403,29.0387858 C135.472513,29.0387858 135.740604,28.7706945 135.740604,28.3415849 L135.740604,27.2888361 C135.740604,26.8589091 135.472513,26.5924525 135.043403,26.5924525 L125.952819,26.5924525 L125.952819,16.2872836 L131.729042,16.2872836 C132.158969,16.2872836 132.425426,16.0200096 132.425426,15.5900826 L132.425426,14.5373338 C132.425426,14.1082242 132.158969,13.8417676 131.729042,13.8417676 L125.952819,13.8417676 L125.952819,3.57501416 L135.043403,3.57501416 C135.472513,3.57501416 135.740604,3.30774018 135.740604,2.87863059 L135.740604,1.82588174 C135.740604,1.39595479 135.472513,1.12949817 135.043403,1.12949817" id="Fill-16" fill="#FFFFFF"></path>
            <path d="M142.125019,1.12949817 L140.838508,1.12949817 C140.408581,1.12949817 140.141307,1.39595479 140.141307,1.82588174 L140.141307,28.3415849 C140.141307,28.7706945 140.408581,29.0387858 140.838508,29.0387858 L142.125019,29.0387858 C142.554129,29.0387858 142.82222,28.7706945 142.82222,28.3415849 L142.82222,1.82588174 C142.82222,1.39595479 142.554129,1.12949817 142.125019,1.12949817" id="Fill-18" fill="#FFFFFF"></path>
            <path d="M158.425707,8.7665863 C158.425707,10.3269105 158.053812,11.5954402 157.320648,12.5362119 C156.595657,13.4671753 155.666328,13.9199881 154.481986,13.9199881 L150.655146,13.9199881 L150.655146,3.57476895 L154.481986,3.57476895 C155.666328,3.57476895 156.595657,4.02758174 157.320648,4.95854521 C158.053812,5.89931689 158.425707,7.1809242 158.425707,8.7665863 M159.929634,13.3731799 C160.709388,12.1079196 161.104986,10.558221 161.104986,8.7665863 C161.104986,6.52050411 160.518127,4.67002009 159.359123,3.26744475 C158.184589,1.84852237 156.62263,1.12925297 154.715748,1.12925297 L148.671433,1.12925297 C148.242324,1.12925297 147.97505,1.39570959 147.97505,1.82563653 L147.97505,28.3413397 C147.97505,28.7712667 148.242324,29.0385406 148.671433,29.0385406 L149.958762,29.0385406 C150.387872,29.0385406 150.655146,28.7712667 150.655146,28.3413397 L150.655146,16.2478055 L154.262118,16.2478055 L158.523789,28.5276959 C158.64721,28.8570886 158.915301,29.0385406 159.278205,29.0385406 L160.564716,29.0385406 C161.050223,29.0385406 161.222684,28.73939 161.212876,28.383842 L156.812255,15.9535589 C158.116748,15.479495 159.164593,14.6114676 159.929634,13.3731799" id="Fill-20" fill="#FFFFFF"></path>
            <g id="Group-24" transform="translate(164.287671, 0.743136)">
                <mask id="mask-4" fill="white">
                    <use xlink:href="#path-3"></use>
                </mask>
                <g id="Clip-23"></g>
                <path d="M7.42163425,26.1616265 C6.22503151,26.1616265 5.277721,25.7717498 4.52575753,24.9715626 C3.77869817,24.1762795 3.39944703,23.1178091 3.39944703,21.827211 L3.39944703,6.89256256 C3.39944703,5.60114703 3.77869817,4.5361379 4.52739224,3.72777717 C5.27935571,2.91532968 6.22584886,2.51973151 7.42163425,2.51973151 C8.64439224,2.51973151 9.61131918,2.91614703 10.3763603,3.72941187 C11.1364973,4.53858995 11.5214699,5.60278174 11.5214699,6.89256256 L11.5214699,21.827211 C11.5214699,23.1169918 11.1364973,24.1746447 10.377995,24.9699279 C9.61213653,25.7717498 8.64520959,26.1616265 7.42163425,26.1616265 M12.3183877,1.9778274 C11.0686571,0.714201826 9.42087626,0.0742155251 7.42163425,0.0742155251 C5.42075753,0.0742155251 3.78523699,0.715019178 2.56084429,1.98027945 C1.339721,3.24308767 0.720168493,4.92274521 0.720168493,6.97102831 L0.720168493,21.7495626 C0.720168493,23.7741425 1.34625982,25.4407224 2.58127808,26.7018959 C3.8187484,27.9663388 5.44691279,28.6071425 7.42163425,28.6071425 C9.42087626,28.6071425 11.0694744,27.9663388 12.3183877,26.7027132 C13.5681183,25.439905 14.2015658,23.7733251 14.2015658,21.7495626 L14.2015658,6.97102831 C14.2015658,4.92192785 13.5681183,3.24145297 12.3183877,1.9778274" id="Fill-22" fill="#FFFFFF" mask="url(#mask-4)"></path>
            </g>
        </g>
    </g>
</svg>